<?xml version="1.0"?>
<svg height="512px" viewBox="-21 -21 682.66669 682" width="512px"
    xmlns="http://www.w3.org/2000/svg">
    <g>
        <path class="active-path"
            d="m77.289062 88.605469v173.5625c0 6.933593 5.621094 12.550781 12.550782 12.550781h173.566406c6.929688 0 12.550781-5.617188 12.550781-12.550781v-32.910157c0-6.933593-5.621093-12.550781-12.550781-12.550781s-12.546875 5.617188-12.546875 12.550781v20.363282h-148.46875v-148.46875h148.46875v30.214844c0 6.933593 5.617187 12.554687 12.546875 12.554687s12.550781-5.621094 12.550781-12.554687v-42.761719c0-6.933594-5.621093-12.550781-12.550781-12.550781h-173.566406c-6.929688 0-12.550782 5.617187-12.550782 12.550781zm0 0"
            data-old_color="#000000" data-original="#000000" fill="#FFFFFF" />
        <path class="active-path"
            d="m150.589844 136.804688c-6.933594 0-12.546875 5.617187-12.546875 12.546874v52.070313c0 6.929687 5.613281 12.550781 12.546875 12.550781h52.070312c6.929688 0 12.550782-5.621094 12.550782-12.550781v-52.070313c0-6.929687-5.621094-12.546874-12.550782-12.546874zm39.523437 52.070312h-26.972656v-26.972656h26.972656zm0 0"
            data-old_color="#000000" data-original="#000000" fill="#FFFFFF" />
        <path class="active-path"
            d="m263.40625 364.34375h-173.566406c-6.929688 0-12.550782 5.617188-12.550782 12.546875v173.570313c0 6.929687 5.621094 12.546874 12.550782 12.546874h173.566406c6.929688 0 12.550781-5.617187 12.550781-12.546874v-173.570313c0-6.929687-5.621093-12.546875-12.550781-12.546875zm-12.546875 173.566406h-148.46875v-148.46875h148.46875zm0 0"
            data-old_color="#000000" data-original="#000000" fill="#FFFFFF" />
        <path class="active-path"
            d="m379 274.71875h173.570312c6.925782 0 12.546876-5.617188 12.546876-12.550781v-173.5625c0-6.933594-5.621094-12.550781-12.546876-12.550781h-173.570312c-6.929688 0-12.550781 5.617187-12.550781 12.550781v173.5625c0 6.933593 5.621093 12.550781 12.550781 12.550781zm12.546875-173.566406h148.46875v148.46875h-148.46875zm0 0"
            data-old_color="#000000" data-original="#000000" fill="#FFFFFF" />
        <path class="active-path"
            d="m565.117188 550.460938v-173.570313c0-6.929687-5.621094-12.546875-12.546876-12.546875h-173.570312c-6.929688 0-12.550781 5.617188-12.550781 12.546875v173.570313c0 6.929687 5.621093 12.546874 12.550781 12.546874h173.570312c6.925782 0 12.546876-5.617187 12.546876-12.546874zm-25.101563-12.550782h-148.46875v-148.46875h148.46875zm0 0"
            data-old_color="#000000" data-original="#000000" fill="#FFFFFF" />
        <path class="active-path"
            d="m552.570312 332.839844c6.925782 0 12.546876-5.621094 12.546876-12.550782 0-6.933593-5.621094-12.546874-12.546876-12.546874h-220.03125v-220.527344c0-6.929688-5.621093-12.550782-12.546874-12.550782-6.9375 0-12.554688 5.621094-12.554688 12.550782v220.527344h-166.570312c-6.925782 0-12.546876 5.617187-12.546876 12.546874 0 6.933594 5.621094 12.550782 12.546876 12.550782h166.570312v217.621094c0 6.929687 5.617188 12.546874 12.554688 12.546874 6.925781 0 12.546874-5.617187 12.546874-12.546874v-217.621094zm0 0"
            data-old_color="#000000" data-original="#000000" fill="#FFFFFF" />
        <path class="active-path"
            d="m150.589844 503.195312h52.070312c6.929688 0 12.550782-5.621093 12.550782-12.550781v-52.070312c0-6.933594-5.621094-12.546875-12.550782-12.546875h-52.070312c-6.933594 0-12.546875 5.613281-12.546875 12.546875v52.070312c0 6.929688 5.613281 12.550781 12.546875 12.550781zm12.550781-52.070312h26.972656v26.972656h-26.972656zm0 0"
            data-old_color="#000000" data-original="#000000" fill="#FFFFFF" />
        <path class="active-path"
            d="m491.816406 136.804688h-52.070312c-6.929688 0-12.550782 5.617187-12.550782 12.546874v52.070313c0 6.929687 5.621094 12.550781 12.550782 12.550781h52.070312c6.933594 0 12.550782-5.621094 12.550782-12.550781v-52.070313c0-6.929687-5.617188-12.546874-12.550782-12.546874zm-12.550781 52.070312h-26.964844v-26.972656h26.964844zm0 0"
            data-old_color="#000000" data-original="#000000" fill="#FFFFFF" />
        <path class="active-path"
            d="m439.746094 503.195312h52.070312c6.933594 0 12.550782-5.621093 12.550782-12.550781v-52.070312c0-6.933594-5.617188-12.546875-12.550782-12.546875h-52.070312c-6.929688 0-12.550782 5.613281-12.550782 12.546875v52.070312c0 6.929688 5.621094 12.550781 12.550782 12.550781zm12.554687-52.070312h26.964844v26.972656h-26.964844zm0 0"
            data-old_color="#000000" data-original="#000000" fill="#FFFFFF" />
        <path class="active-path"
            d="m87.300781 307.792969-.675781.15625c-6.746094 1.59375-10.925781 8.351562-9.335938 15.097656 1.363282 5.777344 6.515626 9.675781 12.203126 9.675781.957031 0 1.921874-.113281 2.890624-.34375l.671876-.15625c6.75-1.589844 10.929687-8.347656 9.335937-15.09375-1.585937-6.742187-8.34375-10.921875-15.089844-9.335937zm0 0"
            data-old_color="#000000" data-original="#000000" fill="#FFFFFF" />
        <path class="active-path"
            d="m260.878906 167.789062-.675781.160157c-6.746094 1.582031-10.929687 8.335937-9.347656 15.085937 1.351562 5.785156 6.507812 9.6875 12.207031 9.6875.945312 0 1.90625-.109375 2.875-.339844l.671875-.15625c6.75-1.582031 10.933594-8.339843 9.351563-15.082031-1.582032-6.746093-8.339844-10.9375-15.082032-9.355469zm0 0"
            data-old_color="#000000" data-original="#000000" fill="#FFFFFF" />
        <path class="active-path"
            d="m12.546875 103.125c6.9375 0 12.550781-5.617188 12.550781-12.546875v-65.148437h62.777344c6.933594 0 12.554688-5.613282 12.554688-12.546876 0-6.929687-5.621094-12.550781-12.554688-12.550781h-75.328125c-6.925781 0-12.546875 5.621094-12.546875 12.550781v77.695313c0 6.929687 5.621094 12.546875 12.546875 12.546875zm0 0"
            data-old_color="#000000" data-original="#000000" fill="#FFFFFF" />
        <path class="active-path"
            d="m627.453125.332031h-75.328125c-6.933594 0-12.554688 5.621094-12.554688 12.550781 0 6.933594 5.621094 12.546876 12.554688 12.546876h62.777344v65.148437c0 6.929687 5.613281 12.546875 12.550781 12.546875 6.925781 0 12.546875-5.617188 12.546875-12.546875v-77.695313c0-6.929687-5.621094-12.550781-12.546875-12.550781zm0 0"
            data-old_color="#000000" data-original="#000000" fill="#FFFFFF" />
        <path class="active-path"
            d="m87.875 614.695312h-62.777344v-65.144531c0-6.925781-5.613281-12.546875-12.550781-12.546875-6.925781 0-12.546875 5.621094-12.546875 12.546875v77.695313c0 6.929687 5.621094 12.550781 12.546875 12.550781h75.328125c6.933594 0 12.554688-5.621094 12.554688-12.550781 0-6.933594-5.621094-12.550782-12.554688-12.550782zm0 0"
            data-old_color="#000000" data-original="#000000" fill="#FFFFFF" />
        <path class="active-path"
            d="m627.453125 537.003906c-6.9375 0-12.550781 5.621094-12.550781 12.546875v65.144531h-62.777344c-6.933594 0-12.554688 5.617188-12.554688 12.550782 0 6.929687 5.621094 12.550781 12.554688 12.550781h75.328125c6.925781 0 12.546875-5.621094 12.546875-12.550781v-77.695313c0-6.925781-5.621094-12.546875-12.546875-12.546875zm0 0"
            data-old_color="#000000" data-original="#000000" fill="#FFFFFF" />
    </g>
</svg>
